Coordinates
version=1
nRows=29
nColumns=24
inDegrees=yes

Units are S.I. units (second, meters, Newtons, ...)
Angles are in degrees.

endheader
time	pelvis_tilt	pelvis_list	pelvis_rotation	pelvis_tx	pelvis_ty	pelvis_tz	hip_flexion_r	hip_adduction_r	hip_rotation_r	knee_angle_r	ankle_angle_r	subtalar_angle_r	mtp_angle_r	hip_flexion_l	hip_adduction_l	hip_rotation_l	knee_angle_l	ankle_angle_l	subtalar_angle_l	mtp_angle_l	lumbar_extension	lumbar_bending	lumbar_rotation
      4.97000000	      5.11848378	      5.17817183	      1.59893009	     -1.46289727	      0.92100406	      0.17983812	     22.11586409	     -4.58848917	     -6.63147234	    -10.41133386	      4.34764565	      2.76061009	      0.00000000	    -20.28674342	      8.14449578	      6.76941775	    -15.87602363	     21.26272111	    -10.14664291	      0.00000000	    -32.19756506	     -3.77123734	    -11.59111644
      4.98000000	      5.28562452	      4.78055501	      1.69969802	     -1.44779234	      0.91966758	      0.18036548	     22.47770146	     -4.06179942	     -5.84239485	    -12.78334831	      2.75410072	      0.06214435	      0.00000000	    -20.03920266	      7.63273054	      6.39321102	    -18.57258753	     20.93246805	     -9.26482888	      0.00000000	    -32.16380775	     -3.10830139	    -11.43163350
      4.99000000	      5.49018703	      4.30939782	      1.71557616	     -1.43259472	      0.91870817	      0.18102773	     22.80012142	     -3.40411301	     -4.92091247	    -15.25965094	      1.08651453	     -2.75756680	      0.00000000	    -19.65516251	      7.06466912	      5.77865001	    -21.52569989	     20.18703801	     -8.40210152	      0.00000000	    -32.17905113	     -2.39466272	    -11.17873184
      5.00000000	      5.74353166	      3.77500199	      1.64929531	     -1.41731397	      0.91812658	      0.18181001	     23.02452280	     -2.63188362	     -3.95818203	    -17.73499697	     -0.27155648	     -5.35254542	      0.00000000	    -19.13966515	      6.43660129	      4.93807274	    -24.72847278	     18.99314305	     -7.54435275	      0.00000000	    -32.25613806	     -1.64158397	    -10.81702390
      5.01000000	      6.03141245	      3.19252604	      1.55942324	     -1.40202361	      0.91794237	      0.18263731	     23.10688843	     -1.79163532	     -3.08525660	    -20.09877462	     -1.07090150	     -7.50148987	      0.00000000	    -18.47082599	      5.73895382	      3.99548081	    -28.16011071	     17.24922769	     -6.76675533	      0.00000000	    -32.39282789	     -0.84977690	    -10.37951222
      5.02000000	      6.31879332	      2.48405059	      1.33552848	     -1.38656576	      0.91802321	      0.18363345	     23.04507703	     -0.77939517	     -2.30055062	    -22.27643593	     -1.09366898	     -8.99132844	      0.00000000	    -17.64305399	      4.90239363	      2.76624455	    -31.73951807	     14.94734963	     -6.11090602	      0.00000000	    -32.49914781	      0.01036005	     -9.71891678
      5.03000000	      6.58637516	      1.74325021	      1.09936679	     -1.37125095	      0.91837310	      0.18466709	     22.82150199	      0.25847023	     -1.69836705	    -24.17346999	     -0.46539230	     -9.99213709	      0.00000000	    -16.60339872	      3.99148487	      1.53857585	    -35.47257604	     12.02918001	     -5.66960181	      0.00000000	    -32.62220075	      0.88405158	     -9.05675201
      5.04000000	      6.77644828	      0.89799821	      0.93002299	     -1.35595370	      0.91896849	      0.18555324	     22.44397201	      1.34142485	     -1.39662528	    -25.70310881	      0.65818781	    -10.50152363	      0.00000000	    -15.31936868	      2.92629392	      0.44868433	    -39.27216828	      8.46321425	     -5.57503285	      0.00000000	    -32.64634550	      1.89776029	     -8.36860895
      5.05000000	      6.78385595	      0.05898790	      0.70306791	     -1.34091219	      0.91951448	      0.18657202	     22.10037638	      2.41753081	     -1.15633849	    -26.94081690	      2.07161884	    -10.68927367	      0.00000000	    -13.67250020	      1.85096227	     -0.60163870	    -43.09150361	      4.31038427	     -5.96190188	      0.00000000	    -32.49054780	      2.84106819	     -7.67135678
      5.06000000	      6.63335538	     -0.81620217	      0.58700775	     -1.32604425	      0.92011503	      0.18736812	     21.72928403	      3.43446806	     -1.24010059	    -27.82503274	      3.64515296	    -10.55510478	      0.00000000	    -11.70271301	      0.71283789	     -1.35674676	    -46.87808878	     -0.32013443	     -6.79345947	      0.00000000	    -32.14998314	      3.87401566	     -7.05836395
      5.07000000	      6.31084943	     -1.66490451	      0.52354759	     -1.31150277	      0.92066727	      0.18804042	     21.41756161	      4.35595741	     -1.52020397	    -28.44904827	      5.21502834	    -10.17414584	      0.00000000	     -9.40503749	     -0.38230557	     -1.83910303	    -50.57538578	     -5.28751742	     -8.13526075	      0.00000000	    -31.63664946	      4.88922502	     -6.44276743
      5.08000000	      5.98896235	     -2.48689686	      0.51927345	     -1.29714203	      0.92141398	      0.18867675	     20.95576986	      5.21364643	     -1.90076072	    -28.77552402	      6.70552750	     -9.73593570	      0.00000000	     -7.02845266	     -1.43851213	     -2.10766520	    -54.06218484	    -10.43614447	    -10.01017358	      0.00000000	    -31.10776448	      5.88065365	     -5.99607569
      5.09000000	      5.54953060	     -3.21377798	      0.53939315	     -1.28312258	      0.92212909	      0.18923762	     20.56244027	      5.92670400	     -2.39944828	    -28.95028532	      8.10429231	     -9.14347293	      0.00000000	     -4.44402130	     -2.34825704	     -2.16959406	    -57.35773992	    -15.36756148	    -12.22938846	      0.00000000	    -30.46599988	      6.76078276	     -5.56963731
      5.10000000	      5.12114383	     -3.84908088	      0.57787010	     -1.26937677	      0.92301591	      0.18979899	     20.08851980	      6.53674146	     -2.88888957	    -28.96565095	      9.35671739	     -8.53476075	      0.00000000	     -1.84143236	     -3.12266513	     -2.08944468	    -60.40660667	    -19.68087472	    -14.61541487	      0.00000000	    -29.85267634	      7.52639618	     -5.24037153
      5.11000000	      4.86371892	     -4.41299573	      0.63850354	     -1.25573967	      0.92437162	      0.19044028	     19.32606969	      7.09175689	     -3.36418870	    -28.75695561	     10.37722296	     -8.10496529	      0.00000000	      0.54680621	     -3.80390033	     -1.92661256	    -63.14720938	    -22.97240888	    -16.93032266	      0.00000000	    -29.43046553	      8.17347550	     -4.96501159
      5.12000000	      4.55541337	     -4.77187306	      0.60121721	     -1.24242138	      0.92582770	      0.19114145	     18.60686627	      7.46048205	     -3.65640347	    -28.52637418	     11.40262235	     -7.49816317	      0.00000000	      2.95685667	     -4.22411874	     -1.80667019	    -65.61249564	    -24.90862911	    -19.09130538	      0.00000000	    -28.99587942	      8.53749196	     -4.68251455
      5.13000000	      4.28906374	     -4.95885410	      0.46179822	     -1.22922472	      0.92758188	      0.19200433	     17.78184117	      7.70417096	     -3.74183309	    -28.18698438	     12.32054695	     -6.96037834	      0.00000000	      5.23250793	     -4.46450263	     -1.80960817	    -67.73628546	    -25.36459998	    -20.96891706	      0.00000000	    -28.62320742	      8.64203850	     -4.38653823
      5.14000000	      4.10224247	     -4.95758733	      0.20623473	     -1.21622302	      0.92972018	      0.19303562	     16.82599348	      7.80286482	     -3.61665760	    -27.75803000	     13.09440251	     -6.50588477	      0.00000000	      7.32373362	     -4.52851917	     -1.97806464	    -69.47581808	    -24.52885316	    -22.50735215	      0.00000000	    -28.39282025	      8.45615262	     -4.03260059
      5.15000000	      4.16348716	     -4.83289219	     -0.04188583	     -1.20326988	      0.93251368	      0.19409141	     15.49581530	      7.80836892	     -3.28353752	    -27.12720061	     13.68523774	     -6.21343995	      0.00000000	      9.03712528	     -4.48925649	     -2.22425948	    -70.76795088	    -22.80315923	    -23.81417732	      0.00000000	    -28.47056225	      8.10800029	     -3.71045111
      5.16000000	      4.12109380	     -4.45731367	     -0.46650669	     -1.19045639	      0.93534343	      0.19537458	     14.27455983	      7.58139084	     -2.77938507	    -26.48036912	     14.26111226	     -5.96349108	      0.00000000	     10.74569858	     -4.23043639	     -2.70975614	    -71.63074136	    -20.52616175	    -24.80928830	      0.00000000	    -28.44661967	      7.37963553	     -3.30834846
      5.17000000	      4.11076920	     -3.98541477	     -0.88803112	     -1.17774823	      0.93834143	      0.19666398	     12.97549133	      7.25388391	     -2.16598221	    -25.71900129	     14.69365609	     -5.83930355	      0.00000000	     12.34908186	     -3.90593293	     -3.26024080	    -72.10023730	    -18.16052079	    -25.63157281	      0.00000000	    -28.47756904	      6.53080916	     -2.95914840
      5.18000000	      4.11156649	     -3.44803037	     -1.33381352	     -1.16508572	      0.94137561	      0.19799741	     11.63299317	      6.84754226	     -1.50734450	    -24.86270195	     15.05320976	     -5.78551960	      0.00000000	     13.86333941	     -3.55360604	     -3.88770627	    -72.20554626	    -15.95506692	    -26.27551796	      0.00000000	    -28.52476978	      5.57946726	     -2.58518706
      5.19000000	      4.11907586	     -2.92221367	     -1.82717285	     -1.15243569	      0.94434320	      0.19936486	     10.26060791	      6.43735454	     -0.79588747	    -23.93167133	     15.31678420	     -5.75276807	      0.00000000	     15.28897005	     -3.26416292	     -4.60577849	    -71.99248613	    -13.99836515	    -26.76459995	      0.00000000	    -28.58236492	      4.61768545	     -2.17459431
      5.20000000	      4.09774349	     -2.38277275	     -2.29526719	     -1.13977469	      0.94710997	      0.20068484	      8.90033425	      5.98070024	     -0.13516685	    -22.92906795	     15.57736507	     -5.75442066	      0.00000000	     16.68315312	     -2.98254698	     -5.32706439	    -71.49486008	    -12.39528180	    -27.12269069	      0.00000000	    -28.58867960	      3.63906018	     -1.76466588
      5.21000000	      4.04687703	     -1.88839783	     -2.76111150	     -1.12709224	      0.94959635	      0.20194369	      7.56348055	      5.54161456	      0.50163561	    -21.88488102	     15.80544899	     -5.75814745	      0.00000000	     18.03643961	     -2.77462635	     -6.06648499	    -70.74561804	    -10.99108632	    -27.32464586	      0.00000000	    -28.55372167	      2.71217125	     -1.35745338
      5.22000000	      3.96588298	     -1.45033409	     -3.21032655	     -1.11439370	      0.95177514	      0.20308840	      6.25207744	      5.12837905	      1.10706183	    -20.80675168	     15.99579062	     -5.74295834	      0.00000000	     19.34586527	     -2.63531951	     -6.78986629	    -69.75197062	     -9.65647808	    -27.31702483	      0.00000000	    -28.47558814	      1.86971893	     -0.95181093
      5.23000000	      3.85509130	     -1.07628365	     -3.63090232	     -1.10167719	      0.95359212	      0.20412974	      4.96993570	      4.75423996	      1.65279284	    -19.70563734	     16.18203429	     -5.73552467	      0.00000000	     20.60885786	     -2.56639492	     -7.47666902	    -68.52349063	     -8.27293410	    -27.05237759	      0.00000000	    -28.35809141	      1.11787180	     -0.56746554
      5.24000000	      3.70837705	     -0.76013513	     -4.02616421	     -1.08897391	      0.95503911	      0.20501038	      3.73295876	      4.41179905	      2.15592670	    -18.60405927	     16.34840803	     -5.70865551	      0.00000000	     21.82557027	     -2.54484452	     -8.11165850	    -67.05048289	     -6.75860054	    -26.48959188	      0.00000000	    -28.20400701	      0.46137687	     -0.18107450
      5.25000000	      3.53536443	     -0.51333229	     -4.38915750	     -1.07628802	      0.95610920	      0.20572308	      2.52785794	      4.11726430	      2.61224833	    -17.50002226	     16.49472798	     -5.68502392	      0.00000000	     22.98074281	     -2.57467172	     -8.67983732	    -65.32994716	     -5.11867651	    -25.64509254	      0.00000000	    -28.02719267	     -0.08487611	      0.17833705
